<?xml version="1.0" encoding="iso-8859-1"?>
<!-- Generator: Adobe Illustrator 16.0.0, SVG Export Plug-In . SVG Version: 6.00 Build 0)  -->
<!DOCTYPE svg PUBLIC "-//W3C//DTD SVG 1.1//EN" "http://www.w3.org/Graphics/SVG/1.1/DTD/svg11.dtd">
<svg version="1.1" id="Capa_1" xmlns="http://www.w3.org/2000/svg" xmlns:xlink="http://www.w3.org/1999/xlink" x="0px" y="0px"
	 width="193.032px" height="193.032px" viewBox="0 0 193.032 193.032" style="enable-background:new 0 0 193.032 193.032;"
	 xml:space="preserve">
<g>
	<g>
		<path d="M190.297,52.111c-1.042,1.142-1.973,2.39-2.896,3.646c-0.028,0-0.049-0.014-0.079-0.012
			c-44.141,3.045-88.043-0.459-132.167,1.22c-0.228,0.009-0.364,0.128-0.513,0.23c-4.867-10.367-10.094-20.503-16.046-30.118
			c-5.023-8.114-34.083-8.004-38.501-0.75c-0.314,0.515,0.198,1.056,0.73,0.95c5.699-1.144,11.609-0.249,17.303-1.06
			c19.97-2.843,24.39,14.765,30.587,27.716c11.637,24.321,21.395,49.514,31.91,74.328c-0.432,0.945,0.429,2.403,1.753,1.701
			c0.691-0.121,1.381-0.243,2.072-0.364c0.019,0.001-0.011-0.02,0-0.028c0.189-0.005,0.328-0.051,0.493-0.07
			c20.436,2.082,43.288,2.393,64.229,0.897c0.284-0.02,0.517-0.104,0.719-0.217c0.162-0.005,0.321-0.047,0.444-0.171
			c21.45-21.651,25.428-52.057,42.435-75.991C193.812,52.551,191.492,50.804,190.297,52.111z M149.446,127.363
			c-0.093-0.021-0.17-0.063-0.274-0.07c-21.069-1.504-44.112-1.811-65.259,0.104c-1.345-3.205-2.651-6.491-3.975-9.736
			c11.363,4.317,28.876,1.942,40.997,2.28c10.525,0.294,21.324,0.666,31.825-0.659C151.184,121.958,149.977,124.655,149.446,127.363
			z M154.951,115.889c-25.069,1.13-50.61-1.651-75.524,0.521c-1.486-3.651-2.989-7.265-4.467-10.942
			c28.934,3.07,58.667,1.638,87.673,0.326C160.076,109.104,157.315,112.477,154.951,115.889z M169.07,95.983
			c-1.124,2.403-2.743,4.854-4.573,7.344c-0.231-0.254-0.568-0.431-1.019-0.444c-29.768-0.972-59.509,1.729-89.315,0.608
			c-1.594-3.971-3.184-7.938-4.795-11.916c14.949,2.392,31.449,0.127,46.421-0.528c18.463-0.808,37.15,1.123,55.552-0.282
			C170.608,92.547,169.859,94.299,169.07,95.983z M172.453,87.982c-0.043-0.004-0.073-0.023-0.118-0.024
			c-33.216-0.666-70.805-4.525-103.658,1.906c-2.305-5.671-4.634-11.337-7.048-16.964c12.741,4.612,30.423,2.297,43.344,1.854
			c23.967-0.822,47.944,1.127,71.902,1.745C175.366,80.361,173.93,84.229,172.453,87.982z M178.081,73.477
			c-24.246-1.631-48.818-2.794-73.107-2.1c-9.921,0.283-19.767,0.937-29.682,0.244c-4.451-0.311-9.953-1.799-14.158,0.157
			c-1.84-4.267-3.677-8.537-5.625-12.74c42.507,2.028,87.243,6.06,129.597,0.138C182.354,63.594,180.118,68.479,178.081,73.477z"/>
		<path d="M85.813,138.816c-0.105-0.003-0.181,0.035-0.276,0.049c-16.854-5.45-25.815,24.648-7.835,30.942
			c9.937,3.479,21.057-2.279,23.65-12.368C104.05,146.947,95.787,139.095,85.813,138.816z M98.214,156.575
			c-1.745,9.01-11.625,12.319-19.651,10.112c-6.979-1.919-8.831-9.541-7.254-15.782c1.661-6.573,6.876-10.026,13.068-9.893
			c0.205,0.551,0.679,0.999,1.436,1.023C94.062,142.302,99.845,148.154,98.214,156.575z"/>
		<path d="M152.578,137.482c-0.155,0.016-0.275,0.075-0.406,0.121c-16.209-4.47-24.205,32.184-0.275,34.404
			c10.751,0.998,19.485-6.636,19.842-17.313C172.101,143.856,162.908,136.51,152.578,137.482z M153.294,168.835
			c-18.099,0.512-17.622-27.354-2.072-28.945c0.216,0.473,0.653,0.816,1.355,0.755C172.775,138.866,173.452,168.264,153.294,168.835
			z"/>
	</g>
</g>
<g>
</g>
<g>
</g>
<g>
</g>
<g>
</g>
<g>
</g>
<g>
</g>
<g>
</g>
<g>
</g>
<g>
</g>
<g>
</g>
<g>
</g>
<g>
</g>
<g>
</g>
<g>
</g>
<g>
</g>
</svg>
